<svg width="16" height="17" viewBox="0 0 16 17" fill="none" xmlns="http://www.w3.org/2000/svg">
<path d="M13.2929 9.7929C13.4804 9.60537 13.7348 9.5 14 9.5C14.2652 9.5 14.5196 9.60537 14.7071 9.7929C14.8946 9.98043 15 10.2348 15 10.5V13.5C15 14.0304 14.7893 14.5391 14.4142 14.9142C14.0391 15.2893 13.5304 15.5 13 15.5H3C2.46957 15.5 1.96086 15.2893 1.58579 14.9142C1.21071 14.5391 1 14.0304 1 13.5V3.5C1 2.96957 1.21071 2.46086 1.58579 2.08579C1.96086 1.71071 2.46957 1.5 3 1.5H9C9.2652 1.5 9.51957 1.60536 9.7071 1.79289C9.89463 1.98043 10 2.23478 10 2.5C10 2.76522 9.89463 3.01957 9.7071 3.20711C9.51957 3.39464 9.2652 3.5 9 3.5H3V13.5H13V10.5C13 10.2348 13.1054 9.98043 13.2929 9.7929Z" fill="#1C5BE3"/>
<path d="M14.7037 4.13287C15.1751 4.60427 15.1751 5.07567 14.7037 5.54707L9.04683 11.2039C8.80733 11.4434 8.56783 11.5612 8.3283 11.5574C8.05257 11.6042 7.77683 11.4898 7.50107 11.214L4.67267 8.3856C4.20123 7.9142 4.20123 7.4428 4.67267 6.9714C5.14407 6.5 5.61547 6.5 6.08687 6.9714L8.2689 9.15344L13.2895 4.13287C13.7609 3.66145 14.2323 3.66145 14.7037 4.13287Z" fill="#1C5BE3"/>
</svg>
